<svg xmlns="http://www.w3.org/2000/svg" viewBox="0 0 200 200"><path d="M44.1 91.37c-6.058 13.585-8.035 33.445-4.92 47.752 9.616 7.76 21.866 12.574 33.076 13.29 2.568 4.015 8.647 8.032 13.217 8.876 4.997.923 9.189 1.273 13.46 1.164 4.272.11 8.464-.24 13.46-1.164 4.571-.844 10.65-4.861 13.217-8.876 11.21-.716 23.208-4.975 34.764-13.29 1.73-18.429.21-33.785-6.607-47.728-6.1-12.478-15.708-21.979-26.047-30.485-8.332-4.815-17.883-7.688-28.035-7.688-.504-.014-.996 0-1.503 0-10.151 0-19.68 2.874-28.011 7.688-12.802 6.453-20.3 17.52-26.071 30.46z" stroke="#3c291c" stroke-width="6.985" fill="#f9f6ee"/><path d="M45.3 79.81c14.787-9.694 28.714-20.593 48.504-23.282l-9.57 65.917-42.26 15.015c-1.8-18.635-.086-37.973 3.326-57.65zM153.8 79.81c-14.787-9.694-28.714-20.593-48.504-23.282l9.57 65.917 42.26 15.015c1.8-18.635.086-37.973-3.326-57.65z" fill="#ab8b61"/><path d="M48.1 70.52c6.228-6.35 23.348-16.255 19.066-2.13-14.312 47.2-1.696 76.824-19.449 81.264-16.58 4.146-25.567-11.077-24.925-20.61 1.12-16.641 12.642-45.608 25.309-58.524zM151.9 70.52c-6.228-6.35-23.348-16.255-19.065-2.13 14.312 47.2 1.696 76.824 19.449 81.264 16.58 4.146 25.567-11.077 24.925-20.61-1.12-16.641-12.642-45.608-25.309-58.524z" stroke="#3c291c" stroke-width="6.985" fill="#9a6e3b"/><path d="M90.1 131.41c1.135-4.246 16.9-4.653 18.52 0 1.388 3.985-5.03 9.126-9.26 9.138-3.854.01-10.401-4.87-9.26-9.138zM82.436 115.266a5.04 5.04 0 11-10.08 0 5.04 5.04 0 0110.08 0zM126.376 115.266a5.04 5.04 0 11-10.08 0 5.04 5.04 0 0110.08 0z" fill="#3c291c"/></svg>